# xmcd CD database file
#
# Track frame offsets:
#	150
#	30252
#	47818
#	68805
#	101543
#	126951
#	147833
#	169217
#	193496
#	209965
#	227215
#
# Disc length: 3272 seconds
#
# Revision: 0
# Processed by: cddbd v1.5.2PL0 Copyright (c) Steve Scherf et al.
# Submitted via: CDex 1.70beta2
#
DISCID=a90cc60b
DTITLE=barbara bürkle band -  Look for the silver lining
DYEAR=2013
DGENRE=Jazz
TTITLE0=Look For The Silver Lining
TTITLE1=In Walked Bud
TTITLE2=Where Would I Be Without You
TTITLE3=I Go To Extremes
TTITLE4=Cuando Vuelva A Tu Lado
TTITLE5=Home Is Where You Are
TTITLE6=I Concentrate On You
TTITLE7=Through Thick And Thin
TTITLE8=Joy Spring
TTITLE9=You And The Night And The Music
TTITLE10=Songbird
EXTD=YEAR: 2013
EXTT0=
EXTT1=
EXTT2=
EXTT3=
EXTT4=
EXTT5=
EXTT6=
EXTT7=
EXTT8=
EXTT9=
EXTT10=
PLAYORDER=
